<svg width="100" height="100" viewBox="0 0 100 100">
  <path fill-rule="evenodd" d="M2.03199976,47.0634125 C-0.677333252,49.7727455 -0.677333252,54.1424276 2.03199976,56.8517606 L43.1482394,97.9680002 C45.8575724,100.677333 50.2272545,100.677333 52.9365875,97.9680002 C55.6459205,95.2586672 55.6459205,90.8889852 52.9365875,88.1796522 L11.8203478,47.0634125 C9.11101482,44.3540795 4.74133276,44.3540795 2.03199976,47.0634125 Z M47.0634125,2.03199976 C44.3540795,4.74133276 44.3540795,9.11101482 47.0634125,11.8203478 L88.1796522,52.9365875 C90.8889852,55.6459205 95.2586672,55.6459205 97.9680002,52.9365875 C100.677333,50.2272545 100.677333,45.8575724 97.9680002,43.1482394 L56.8517606,2.03199976 C54.1424276,-0.677333252 49.7727455,-0.677333252 47.0634125,2.03199976 Z M3.01079303,61.7466961 C-0.244836762,65.0023258 -0.244836762,70.2425386 3.01079303,73.4927691 L26.503216,96.9851921 C29.7588458,100.240822 34.9990586,100.240822 38.2492891,96.9851921 L3.00580908,61.7417121 L3.01079303,61.7466961 Z M61.7466961,3.01079303 L96.9901761,38.254273 C100.245806,34.9986433 100.245806,29.7584305 96.9901761,26.5082 L73.4922153,3.01023926 C70.2365855,-0.245390534 64.9963728,-0.245390534 61.7461423,3.01023926 L61.7466961,3.01079303 Z M3.9895863,86.2220656 C3.44879956,86.7628662 3.44879956,87.6388931 3.9895863,88.1797906 L11.8202094,96.0104137 C12.3609961,96.5512004 13.2370369,96.5512004 13.7779344,96.0104137 L17.6932459,92.0951022 L7.90489784,82.3067541 L3.9895863,86.2220656 Z M29.4451336,60.7665183 L39.2334817,70.5548664 L70.5617886,39.2265595 L60.7734405,29.4382114 L29.4451336,60.7665183 Z M82.308277,7.90337497 L92.096625,17.691723 L96.0119366,13.7764115 C96.5527233,13.2356109 96.5527233,12.359584 96.0119366,11.8186865 L88.1813135,3.98806343 C87.6405267,3.44727668 86.764486,3.44727668 86.2235885,3.98806343 L82.308277,7.90337497 Z"/>
</svg>
