<svg width="80" height="100" viewBox="0 0 80 100">
  <path fill-rule="evenodd" d="M64.331899,79.9999813 C64.054559,79.9999813 63.757679,79.9765413 63.464709,79.9609213 C64.011589,77.8359213 64.331899,75.6250213 64.331899,73.3320213 C64.331899,64.4140213 59.839699,56.2660213 52.769899,51.3870213 C54.090199,50.1136213 55.613699,49.0784213 57.273799,48.2972213 C58.187859,49.3324213 59.512099,50.0003213 61.000399,50.0003213 L67.668399,50.0003213 C69.168399,50.0003213 70.500399,49.3245413 71.418399,48.2737213 C77.199599,51.0081213 81.000399,56.8987213 81.000399,63.3327213 C81.000399,72.5241213 73.523799,80.0007213 64.332399,80.0007213 L64.331899,79.9999813 Z M20.999899,73.3319813 C20.999899,66.8983813 24.800699,61.0079813 30.581899,58.2729813 C31.499869,59.3237813 32.831899,59.9995813 34.331899,59.9995813 L37.913899,59.9995813 C37.765459,61.1245813 37.667809,62.2456813 37.667809,63.3315813 C37.667809,72.1088813 42.062309,80.3395813 49.249809,85.2885813 C46.249809,88.1987813 42.167809,89.9994823 37.667809,89.9994823 C28.476409,89.9994823 20.999809,82.5228813 20.999809,73.3314813 L20.999899,73.3319813 Z M32.667899,48.3319813 C32.667899,47.4140113 33.413989,46.6678813 34.331999,46.6678813 L40.999999,46.6678813 C41.921879,46.6678813 42.667999,47.4139713 42.667999,48.3319813 L42.667999,54.9999813 C42.667999,55.2148213 42.617219,55.4140413 42.546909,55.6015413 C42.515659,55.6757613 42.464879,55.7382613 42.425819,55.8085713 C42.367229,55.9101313 42.308629,56.0117013 42.230509,56.1015413 C42.183639,56.1562313 42.125039,56.2031013 42.070349,56.2499813 C41.972689,56.3359213 41.863319,56.4062313 41.750039,56.4687313 C41.695349,56.4960713 41.640659,56.5273213 41.585979,56.5468613 C41.402389,56.6171713 41.207069,56.6679513 41.000039,56.6679513 L34.332039,56.6679513 C33.414069,56.6679513 32.667939,55.9179513 32.667939,54.9999513 L32.667899,48.3319813 Z M54.038899,76.3979813 C50.062299,73.2573813 47.667799,68.4291813 47.667799,63.3319813 C47.667799,62.3007813 47.773269,61.2772813 47.964679,60.2694813 C51.898279,63.3827813 54.331879,68.1835813 54.331879,73.3314813 C54.331879,74.3822813 54.226409,75.4017813 54.038909,76.3978813 L54.038899,76.3979813 Z M59.331899,38.3319813 C59.331899,37.4140113 60.081899,36.6678813 60.999899,36.6678813 L67.667899,36.6678813 C68.585869,36.6678813 69.331999,37.4139713 69.331999,38.3319813 L69.331999,44.9999813 C69.331999,45.9179513 68.585909,46.6679813 67.667899,46.6679813 L60.999899,46.6679813 C60.081929,46.6679813 59.331899,45.9179813 59.331899,44.9999813 L59.331899,38.3319813 Z M72.636899,38.0351013 C72.515809,35.9960013 71.179899,34.2968013 69.332199,33.6406013 L69.332199,1.66760132 C69.332199,0.74572132 68.590009,-0.00039868 67.668099,-0.00039868 L61.000099,-0.00039868 C60.078219,-0.00039868 59.332099,0.74569132 59.332099,1.66760132 L59.332099,33.6406013 C57.488299,34.2968513 56.152399,35.9961013 56.031299,38.0351013 C51.785199,39.4335013 47.921899,41.9101013 44.855299,45.1874013 C44.284989,44.4881813 43.534999,43.9491013 42.667799,43.6405013 L42.667799,1.66750132 C42.667799,0.74562132 41.921709,-0.00049868 40.999799,-0.00049868 L34.331799,-0.00049868 C33.409919,-0.00049868 32.667699,0.74559132 32.667699,1.66750132 L32.667699,43.6405013 C30.819999,44.2967513 29.484099,45.9960013 29.362999,48.0350013 C18.495999,51.6014013 11,61.8160013 11,73.3320013 C11,88.0350013 22.964999,100 37.667999,100 C46.332099,100 54.022999,95.8281003 58.897999,89.4020013 C60.733899,89.7926313 62.558199,89.9996603 64.331599,89.9996603 C79.034599,89.9996603 90.999599,78.0346613 90.999599,63.3316613 C90.999599,51.8156613 83.503499,41.6016613 72.636599,38.0346613 L72.636899,38.0351013 Z" transform="translate(-11)"/>
</svg>
