<svg width="100" height="70" viewBox="0 0 100 70">
  <g fill-rule="evenodd">
    <path d="M95.0405063 33.32C96.3706329 30.3420727 97.32 26.4840545 95.757481 23.0238909 93.9329241 18.9869273 89.2454557 16.7398 81.8384937 16.3371091L80.2017848 16.3321327 80.0781646 16.3371091C78.6639873 16.4116782 77.3784177 16.5807218 76.161962 16.7895255 76.1026329 18.3804345 75.8553924 20.0260709 75.4301646 21.7114164 77.0025696 21.3136891 78.7183924 21.1148255 80.2709241 21.0303036L81.655481 21.0303036C85.4430759 21.2440836 90.2047215 22.0991909 91.5051013 24.9627764 92.1478987 26.3797036 91.9303418 28.1594855 91.3617089 29.87474 88.3701899 27.7617582 84.7260127 26.5139764 80.795 26.5139764 79.1533544 26.5139764 77.5661392 26.7426727 76.0531013 27.1453636 78.6193038 31.7192909 80.0137342 36.9145636 80.0137342 42.2144545 80.0137342 49.637 77.3733544 56.4486364 72.9923418 61.7571818 75.3657595 62.8757945 78.0012025 63.5220727 80.795 63.5220727 90.9610759 63.5220727 99.1987975 55.2394182 99.1987975 45.0178909 99.1889114 40.5832 97.6313291 36.5065273 95.0403165 33.3197455L95.0405063 33.32zM23.1012658 27.006C21.7513924 26.6878182 20.3470886 26.5187873 18.8983544 26.5187873 15.0860759 26.5187873 11.5456962 27.6821364 8.60860759 29.6757873 8.08941772 28.0251873 7.90646835 26.3249509 8.5245443 24.9627509 9.82492405 22.0991145 14.5866962 21.2439691 18.3741646 21.0302782L19.7587215 21.0302782C21.1432785 21.1098236 22.6563165 21.2738909 24.0853038 21.5870964 23.669962 19.9116782 23.437557 18.2809327 23.3881139 16.7050418 22.3052405 16.5360109 21.1827975 16.4017764 19.9465949 16.3321709L18.3098861 16.3272073 18.1813291 16.3321709C10.7742405 16.7348745 6.09170886 18.9819891 4.26234177 23.0189527 2.74436709 26.3747527 3.59482278 30.1084255 4.86064557 33.0466436 2.13127848 36.2732618.484696203 40.4493345.484696203 45.0181709.484696203 55.2396982 8.72241772 63.5223527 18.8884937 63.5223527 21.5041899 63.5223527 23.9912785 62.9655345 26.2460886 61.9762436 21.7563418 56.6367709 19.0368481 49.7411345 19.0368481 42.2196982 19.0516835 36.8554073 20.4757089 31.6153345 23.1012785 27.0067891L23.1012658 27.006z"/>
    <path d="M70.1886076,25.256 C72.116962,20.9406909 73.4965823,15.3475636 71.2269747,10.3307273 C68.5765949,4.47910909 61.7926709,1.22283636 51.0522911,0.641072727 L48.6788734,0.636109091 L48.4959241,0.641072727 C37.7561772,1.22274727 30.9668101,4.48407273 28.3212405,10.3307273 C26.1208608,15.1929273 27.3521013,20.6069818 29.1914937,24.8678182 C25.2407342,29.5461091 22.8475696,35.6014909 22.8475696,42.224 C22.8475696,57.0398182 34.7937722,69.0454545 49.523519,69.0454545 C64.258962,69.0454545 76.1994684,57.0340909 76.1994684,42.224 C76.1994684,35.7857818 73.9447848,29.8795636 70.1868101,25.256 L70.1886076,25.256 Z M34.6126582,19.9762182 C33.8610759,17.5799273 33.5940633,15.1189818 34.4939873,13.1452364 C36.3828481,8.99398182 43.2805696,7.756 48.7737342,7.44774545 L50.7762658,7.44774545 C56.2696835,7.75598727 63.1675316,8.99385455 65.0560127,13.1452364 C65.9905443,15.1985273 65.6691519,17.7787273 64.8483418,20.2646182 C60.5118861,17.2021818 55.231,15.3974545 49.5293544,15.3974545 C44.0012532,15.3974545 38.8687215,17.0877636 34.6116329,19.9763455 L34.6126582,19.9762182 Z"/>
  </g>
</svg>
