<svg width="98" height="98" viewBox="0 0 98 98">
  <path fill-rule="evenodd" d="M58.6887279,27.499998 C54.7317279,27.499998 51.3957279,29.792998 50.1457279,33.124998 C47.2277279,33.542968 44.7277279,35.417998 43.2707279,37.917998 C41.6027279,40.624998 41.6027279,43.960998 43.2707279,46.667998 C45.1457279,49.999998 49.1027279,52.917998 52.6457279,55.417998 C54.5207279,56.874998 56.3957279,58.124998 57.6457279,59.374998 C63.6887279,65.206998 66.1887279,71.249998 65.3527279,79.581998 C64.7277279,87.706998 55.5597279,91.25 51.6027279,92.288999 C39.3097279,95.831999 22.2277279,93.538999 14.7277279,83.745998 C7.22772692,73.335998 3.89572792,57.917998 7.22772692,47.085998 C10.9777279,34.792998 22.6457279,25.210998 33.0597279,17.917998 C34.7277279,19.999998 37.4347279,21.249998 40.3527279,21.249998 L41.1847579,21.249998 L70.9777579,18.956998 C75.9777579,18.539028 79.9347579,14.374998 79.5207579,9.788998 C79.3137279,5.210898 74.9387579,1.667898 69.7277579,2.085898 L39.9387579,4.374998 C35.5637579,4.792968 32.0207579,7.917998 31.3957579,11.667998 C19.7277579,19.585998 5.97775792,30.624998 1.60275792,45.210998 C-2.35424208,58.128998 1.18478792,75.417998 10.3527579,87.292998 C17.0207579,96.043 29.1027579,100 40.3527579,100 C45.1457579,100 49.7277579,99.375 53.6847579,98.125 C64.5167579,95 70.9777579,88.331998 71.6027579,79.999998 C72.4347879,69.792998 69.3097579,61.874998 61.8097579,54.999998 C60.1417579,53.542998 58.0597579,52.081998 56.1847579,50.624998 C53.2667579,48.542998 49.7277579,46.042998 48.4777579,43.749998 C47.8527579,42.499998 48.0597879,41.456998 48.4777579,40.831998 C48.8957279,40.206998 49.5207579,39.581998 50.3527579,39.374998 C51.8097579,42.292998 54.9347579,44.581998 58.6847579,44.581998 L88.4777579,44.581998 C93.4777579,44.581998 97.6457579,40.831998 97.6457579,36.038998 C97.8527879,31.460898 93.6887579,27.499898 88.6887579,27.499898 L58.6887279,27.499998 Z" transform="translate(0 -2)"/>
</svg>
