<svg viewBox="0 0 96.1 96.11" id="icon-logo">
  <path d="M95.41,73.47a2.36,2.36,0,0,0-3.34,0l3.26-3.26A2.36,2.36,0,1,0,92,66.87L80.81,78l-30-30,30-30L92,29.25a2.37,2.37,0,1,0,3.35-3.35l-3.25-3.26a2.37,2.37,0,0,0,3.35-3.35l-7.9-7.9L96,2.92,93.19.13,84.71,8.6,76.81.7A2.36,2.36,0,0,0,73.47,4L70.21.78a2.37,2.37,0,0,0-3.35,3.35L78,15.29l-30,30-30-30L29.25,4.13A2.37,2.37,0,1,0,25.91.78L22.65,4A2.37,2.37,0,0,0,19.3.69L11.4,8.6,2.92.13.12,2.92l8.47,8.47-7.9,7.9A2.37,2.37,0,0,0,4,22.64L.78,25.9a2.37,2.37,0,1,0,3.35,3.35L15.29,18.09l30,30-30,30L4.12,66.86A2.36,2.36,0,1,0,.78,70.21L4,73.46A2.37,2.37,0,0,0,.69,76.81l7.9,7.9L1.05,92.26,3.84,95l7.54-7.54,7.9,7.9a2.37,2.37,0,1,0,3.34-3.35l3.26,3.26A2.37,2.37,0,0,0,29.24,92L18.08,80.82l30-30,30,30L66.86,92a2.37,2.37,0,0,0,3.35,3.35l3.26-3.26a2.37,2.37,0,1,0,3.35,3.35l7.9-7.9,7.54,7.54,2.79-2.79-7.54-7.54,7.9-7.9A2.38,2.38,0,0,0,95.41,73.47Z"/>
</svg>